<?xml version="1.0" encoding="UTF-8"?>
<svg id="Layer_2" data-name="Layer 2" xmlns="http://www.w3.org/2000/svg" viewBox="0 0 874.68 794.43">
  <defs>
    <style>
      .cls-1 {
        fill: #df6149;
        stroke-width: 0px;
      }
    </style>
  </defs>
  <g id="Layer_2-2" data-name="Layer 2">
    <g>
      <path class="cls-1" d="M420.78,710.82l-43.41-90.09c-2.17-4.79-3.87-8.75-5.73-12.64-47.56-99.69-95.45-199.22-142.63-299.09-52.3-110.71-5.61-240.15,104.08-290.16,130.32-59.42,283.64,28.29,299.19,170.8,4.69,42.93-2.98,83.25-21.41,121.93-46.71,98.05-93.37,196.13-140.04,294.2-2.18,4.58-4.29,9.2-6.4,13.75l-43.66,91.31ZM419.93,363.33c77.68.59,142.78-63.79,143.32-141.72.55-78.51-63.77-143.55-142.27-143.87-77.48-.32-142.49,63.48-143.29,140.61-.82,79.38,62.96,144.39,142.23,144.98Z"/>
      <path class="cls-1" d="M421.57,620.35c-129.61,0-234.68,38.97-234.68,87.04s105.07,87.04,234.68,87.04,234.68-38.97,234.68-87.04-105.07-87.04-234.68-87.04ZM421.57,754.77c-70.55,0-127.74-21.21-127.74-47.38s57.19-47.38,127.74-47.38,127.74,21.21,127.74,47.38-57.19,47.38-127.74,47.38Z"/>
      <g>
        <path class="cls-1" d="M726.35,636.17c11.43,10.95,23.95,22.87,37.29,35.67,33.64,32.24,69.31,66.29,103.89,99.38,13.79,12.23,6.13,19.6-10.18,21.08-26.09,1.8-54.62-5.54-68.19-23.71-27.8-32.19-51.63-59.16-72.46-83.66-2.16-2.91.24-6.1-2.73-7.31-10.88-3.63-26.04,1.71-33-10-9.19-11.37-17.91-22.04-25.74-31.99-6.42-7.27-12.23-18.5-2.69-26.04,10.03-8.91,23.87-9.85,36.34-6.4,3.58.98,6.02,2.88,8.6,5.39,8.82,8.4,18.89,18.05,28.58,27.31l.3.29Z"/>
        <path class="cls-1" d="M53.78,722.27c12.63-12.98,25.46-26.29,36.89-37.86,3.37-3.65,8.38-5.8,12.77-7.61,11.81-4.86,32.15-17.6,23.95-27.81-2.58-4.45-11.4-8.26-9.86-14.09.58-1.76,2.2-3.5,3.59-4.89,9.11-8.75,17.73-17,25.83-24.62,3.19-3.11,7.96-4.63,12.37-3.53,2.63.93.04,3.53-1.16,4.73-6.67,7.21-15.51,14.39-22,22.7-1.36,3.8,6.67,2.64,8.59,2.08,7.04-2.51,10.73-9.39,16.22-14.36,7.04-6.21,12.83-18.28,23.63-15.02,2.08,1.29-.26,3.52-1.33,4.84-6.35,7.54-13.92,14.29-19.67,22.4-.93,2.69,2.63,2.77,4.53,2.75,5.22.09,8.98-2.85,12-6.72,5.53-6.41,10.66-12.44,15.96-18.59,2.8-3.73,7.27-5.79,11.97-5.02,3.47.47,2.13,3.16.5,5.04-5.28,6.98-12.3,14.3-17.45,22.14-1.25,2.9,2.46,3.22,4.6,3.14,4.24-.02,7.64-1.87,10.07-5.18,5.66-7.23,11.08-14.59,16.23-21.12,1.01-1.2,2.1-2.27,3.49-2.99,2.06-1.13,5.03-1.42,7.54-1.03,1.3.26,2.05.84,2.1,1.71.06,1.02-.72,2.28-1.38,3.23-4.63,6.51-9.66,13.36-14.68,20.54-3.62,6.18-9.24,10.25-16.01,12.52-10.92,4.15-19.94,6.59-30.38,11.32-10.61,5-25.4,13.62-20.42,25.59,1.07,2.98.54,5.86-1.31,8.42-20.53,25.32-46.59,60.25-74.08,92.54-14.14,12.22-54.27,21.83-73.81,10.19-7.95-6.34,1.35-15.07,6.47-20.02,16.55-16.18,30.4-31.19,43.92-45.1l.29-.3Z"/>
      </g>
    </g>
  </g>
</svg>