<svg width="96" height="96" xmlns="http://www.w3.org/2000/svg" xmlns:xlink="http://www.w3.org/1999/xlink" xml:space="preserve" overflow="hidden"><g transform="translate(-427 -481)"><path d="M475 525C470 525 466 521 466 516 466 511 470 507 475 507 480 507 484 511 484 516 484 521 480 525 475 525ZM475 495C468.1 495 461.6 498.4 457.7 504.2 453.8 509.9 453 517.2 455.5 523.7L465 544.7 473.2 561.9C473.5 562.6 474.2 563 475 563 475.8 563 476.5 562.6 476.8 561.9L485 544.7 494.5 523.7C497 517.2 496.2 509.9 492.3 504.2 488.4 498.4 481.9 495 475 495Z" fill="#BFBFBF"/></g></svg>